<svg xmlns="http://www.w3.org/2000/svg" width="160" height="160" viewBox="0 0 160 160" role="img" aria-label="3 Berlian logo">
  <defs>
    <linearGradient id="bg" x1="20" y1="20" x2="140" y2="140" gradientUnits="userSpaceOnUse">
      <stop offset="0%" stop-color="#0D47A1"/>
      <stop offset="50%" stop-color="#1976D2"/>
      <stop offset="100%" stop-color="#FFC107"/>
    </linearGradient>
    <linearGradient id="gem" x1="46" y1="34" x2="114" y2="122" gradientUnits="userSpaceOnUse">
      <stop offset="0%" stop-color="#FFFFFF" stop-opacity="0.98"/>
      <stop offset="100%" stop-color="#FFE79B"/>
    </linearGradient>
    <filter id="shadow" x="0" y="0" width="160" height="160" filterUnits="userSpaceOnUse" color-interpolation-filters="sRGB">
      <feDropShadow dx="0" dy="10" stdDeviation="8" flood-color="#0F172A" flood-opacity="0.24"/>
    </filter>
  </defs>
  <rect width="160" height="160" rx="32" fill="url(#bg)"/>
  <g filter="url(#shadow)">
    <path d="M80 26L116 52L104 98L56 98L44 52L80 26Z" fill="url(#gem)"/>
    <path d="M80 34L106 56L96 92L64 92L54 56L80 34Z" fill="#0D47A1" fill-opacity="0.18"/>
    <path d="M80 44L96 58L90 84L70 84L64 58L80 44Z" fill="#0D47A1"/>
    <path d="M80 64L86 72L82 84L78 84L74 72L80 64Z" fill="#FFC107"/>
  </g>
  <circle cx="122" cy="38" r="10" fill="#FFC107"/>
  <circle cx="122" cy="38" r="4" fill="#0D47A1"/>
</svg>
